<svg width="745" height="745" viewBox="0 0 745 745" fill="none" xmlns="http://www.w3.org/2000/svg">
<ellipse cx="370" cy="372.5" rx="370" ry="372.5" fill="#182942"/>
<path d="M375 372.5L97.5 465.101L97.5 279.899L375 372.5Z" fill="#1BD96A"/>
<path d="M375 372.5L652.5 279.899V465.101L375 372.5Z" fill="#CC562F"/>
<g filter="url(#filter0_d_2_15)">
<path d="M97.25 241.852H109.045L117.159 261.625H117.568L125.682 241.852H137.477V276.761H128.205V256.579H127.932L120.159 276.488H114.568L106.795 256.443H106.523V276.761H97.25V241.852ZM151.446 241.852V276.761H141.969V241.852H151.446ZM186.142 241.852V276.761H178.233L165.619 258.42H165.415V276.761H155.938V241.852H163.983L176.392 260.125H176.665V241.852H186.142ZM190.625 276.761V241.852H215.784V249.488H200.102V255.488H214.489V263.125H200.102V269.125H215.716V276.761H190.625ZM253.075 254.943H243.462C243.393 254.147 243.212 253.426 242.916 252.778C242.632 252.13 242.234 251.574 241.723 251.108C241.223 250.63 240.615 250.267 239.899 250.017C239.183 249.755 238.371 249.625 237.462 249.625C235.871 249.625 234.524 250.011 233.422 250.784C232.331 251.556 231.501 252.664 230.933 254.108C230.376 255.551 230.098 257.284 230.098 259.306C230.098 261.443 230.382 263.233 230.95 264.676C231.53 266.108 232.365 267.187 233.456 267.914C234.547 268.63 235.859 268.988 237.393 268.988C238.268 268.988 239.053 268.88 239.746 268.664C240.439 268.437 241.041 268.113 241.553 267.693C242.064 267.272 242.479 266.767 242.797 266.176C243.126 265.574 243.348 264.897 243.462 264.147L253.075 264.216C252.962 265.693 252.547 267.199 251.831 268.733C251.115 270.255 250.098 271.664 248.78 272.96C247.473 274.244 245.854 275.278 243.922 276.062C241.99 276.846 239.746 277.238 237.189 277.238C233.984 277.238 231.109 276.551 228.564 275.176C226.03 273.801 224.024 271.778 222.547 269.108C221.081 266.437 220.348 263.17 220.348 259.306C220.348 255.42 221.098 252.147 222.598 249.488C224.098 246.818 226.121 244.801 228.666 243.437C231.212 242.062 234.053 241.375 237.189 241.375C239.393 241.375 241.422 241.676 243.274 242.278C245.126 242.88 246.751 243.761 248.149 244.92C249.547 246.068 250.672 247.483 251.524 249.164C252.376 250.846 252.893 252.772 253.075 254.943ZM257.375 276.761V241.852H272.443C275.034 241.852 277.301 242.324 279.244 243.267C281.188 244.21 282.699 245.568 283.778 247.341C284.858 249.113 285.398 251.238 285.398 253.716C285.398 256.216 284.841 258.324 283.727 260.039C282.625 261.755 281.074 263.051 279.074 263.926C277.085 264.801 274.761 265.238 272.102 265.238H263.102V257.875H270.193C271.307 257.875 272.256 257.738 273.04 257.466C273.835 257.181 274.443 256.733 274.864 256.119C275.295 255.505 275.511 254.704 275.511 253.716C275.511 252.716 275.295 251.903 274.864 251.278C274.443 250.642 273.835 250.176 273.04 249.88C272.256 249.574 271.307 249.42 270.193 249.42H266.852V276.761H257.375ZM277.83 260.738L286.557 276.761H276.261L267.739 260.738H277.83ZM298.506 276.761H288.278L299.801 241.852H312.756L324.278 276.761H314.051L306.415 251.466H306.142L298.506 276.761ZM296.597 262.988H315.824V270.079H296.597V262.988ZM327.641 276.761V241.852H352.186V249.488H337.118V255.488H350.686V263.125H337.118V276.761H327.641ZM354.717 249.488V241.852H385.058V249.488H374.558V276.761H365.217V249.488H354.717Z" fill="white"/>
</g>
<path d="M400.287 241.852H412.082L420.196 261.625H420.605L428.719 241.852H440.514V276.761H431.242V256.579H430.969L423.196 276.488H417.605L409.832 256.443H409.56V276.761H400.287V241.852ZM478.824 259.306C478.824 263.193 478.068 266.471 476.557 269.142C475.046 271.801 473.006 273.818 470.438 275.193C467.869 276.556 465.006 277.238 461.847 277.238C458.665 277.238 455.79 276.551 453.222 275.176C450.665 273.789 448.631 271.767 447.119 269.108C445.619 266.437 444.869 263.17 444.869 259.306C444.869 255.42 445.619 252.147 447.119 249.488C448.631 246.818 450.665 244.801 453.222 243.437C455.79 242.062 458.665 241.375 461.847 241.375C465.006 241.375 467.869 242.062 470.438 243.437C473.006 244.801 475.046 246.818 476.557 249.488C478.068 252.147 478.824 255.42 478.824 259.306ZM469.074 259.306C469.074 257.216 468.796 255.454 468.239 254.022C467.693 252.579 466.881 251.488 465.801 250.75C464.733 250 463.415 249.625 461.847 249.625C460.278 249.625 458.955 250 457.875 250.75C456.807 251.488 455.994 252.579 455.438 254.022C454.892 255.454 454.619 257.216 454.619 259.306C454.619 261.397 454.892 263.164 455.438 264.608C455.994 266.039 456.807 267.13 457.875 267.88C458.955 268.619 460.278 268.988 461.847 268.988C463.415 268.988 464.733 268.619 465.801 267.88C466.881 267.13 467.693 266.039 468.239 264.608C468.796 263.164 469.074 261.397 469.074 259.306ZM496.641 276.761H483.209V241.852H496.504C500.095 241.852 503.197 242.551 505.811 243.949C508.436 245.335 510.459 247.335 511.879 249.949C513.311 252.551 514.027 255.67 514.027 259.306C514.027 262.943 513.317 266.068 511.896 268.681C510.476 271.284 508.465 273.284 505.862 274.681C503.26 276.068 500.186 276.761 496.641 276.761ZM492.686 268.716H496.3C498.027 268.716 499.499 268.437 500.715 267.88C501.942 267.324 502.874 266.363 503.51 265C504.158 263.636 504.482 261.738 504.482 259.306C504.482 256.875 504.152 254.977 503.493 253.613C502.845 252.25 501.891 251.289 500.629 250.733C499.379 250.176 497.845 249.897 496.027 249.897H492.686V268.716ZM518.412 276.761V241.852H533.48C536.071 241.852 538.338 242.363 540.281 243.386C542.224 244.409 543.736 245.846 544.815 247.699C545.895 249.551 546.435 251.716 546.435 254.193C546.435 256.693 545.878 258.858 544.764 260.687C543.662 262.517 542.111 263.926 540.111 264.914C538.122 265.903 535.798 266.397 533.139 266.397H524.139V259.034H531.23C532.344 259.034 533.293 258.841 534.077 258.454C534.872 258.056 535.48 257.494 535.901 256.767C536.332 256.039 536.548 255.181 536.548 254.193C536.548 253.193 536.332 252.341 535.901 251.636C535.48 250.92 534.872 250.375 534.077 250C533.293 249.613 532.344 249.42 531.23 249.42H527.889V276.761H518.412ZM554.621 276.761H544.394L555.916 241.852H568.871L580.394 276.761H570.166L562.53 251.466H562.257L554.621 276.761ZM552.712 262.988H571.939V270.079H552.712V262.988ZM614.706 254.943H605.092C605.024 254.147 604.842 253.426 604.547 252.778C604.263 252.13 603.865 251.574 603.354 251.108C602.854 250.63 602.246 250.267 601.53 250.017C600.814 249.755 600.001 249.625 599.092 249.625C597.501 249.625 596.155 250.011 595.053 250.784C593.962 251.556 593.132 252.664 592.564 254.108C592.007 255.551 591.729 257.284 591.729 259.306C591.729 261.443 592.013 263.233 592.581 264.676C593.161 266.108 593.996 267.187 595.087 267.914C596.178 268.63 597.49 268.988 599.024 268.988C599.899 268.988 600.683 268.88 601.376 268.664C602.07 268.437 602.672 268.113 603.183 267.693C603.695 267.272 604.109 266.767 604.428 266.176C604.757 265.574 604.979 264.897 605.092 264.147L614.706 264.216C614.592 265.693 614.178 267.199 613.462 268.733C612.746 270.255 611.729 271.664 610.411 272.96C609.104 274.244 607.484 275.278 605.553 276.062C603.621 276.846 601.376 277.238 598.82 277.238C595.615 277.238 592.74 276.551 590.195 275.176C587.661 273.801 585.655 271.778 584.178 269.108C582.712 266.437 581.979 263.17 581.979 259.306C581.979 255.42 582.729 252.147 584.229 249.488C585.729 246.818 587.751 244.801 590.297 243.437C592.842 242.062 595.683 241.375 598.82 241.375C601.024 241.375 603.053 241.676 604.905 242.278C606.757 242.88 608.382 243.761 609.78 244.92C611.178 246.068 612.303 247.483 613.155 249.164C614.007 250.846 614.524 252.772 614.706 254.943ZM619.006 276.761V241.852H628.483V255.966H628.96L639.46 241.852H650.506L638.71 257.397L650.778 276.761H639.46L631.619 263.67L628.483 267.761V276.761H619.006Z" fill="white"/>
<path d="M249.888 287.606H261.683L269.797 307.379H270.206L278.319 287.606H290.115V322.515H280.842V302.334H280.569L272.797 322.243H267.206L259.433 302.197H259.16V322.515H249.888V287.606ZM303.675 322.515H293.447L304.97 287.606H317.925L329.447 322.515H319.22L311.584 297.22H311.311L303.675 322.515ZM301.765 308.743H320.993V315.834H301.765V308.743ZM363.014 287.606V322.515H355.105L342.491 304.174H342.287V322.515H332.809V287.606H340.855L353.264 305.879H353.537V287.606H363.014ZM376.565 322.515H366.338L377.861 287.606H390.815L402.338 322.515H392.111L384.474 297.22H384.202L376.565 322.515ZM374.656 308.743H393.883V315.834H374.656V308.743ZM426.73 299.129C426.582 298.527 426.349 297.998 426.031 297.544C425.713 297.078 425.315 296.686 424.838 296.368C424.372 296.038 423.827 295.794 423.202 295.635C422.588 295.464 421.912 295.379 421.173 295.379C419.582 295.379 418.224 295.76 417.099 296.521C415.986 297.282 415.133 298.379 414.542 299.811C413.963 301.243 413.673 302.97 413.673 304.993C413.673 307.038 413.952 308.788 414.508 310.243C415.065 311.697 415.895 312.811 416.997 313.584C418.099 314.356 419.469 314.743 421.105 314.743C422.548 314.743 423.747 314.532 424.702 314.112C425.667 313.691 426.389 313.095 426.866 312.322C427.344 311.549 427.582 310.64 427.582 309.595L429.219 309.765H421.241V303.015H436.719V307.856C436.719 311.038 436.042 313.76 434.69 316.021C433.349 318.271 431.497 319.998 429.133 321.203C426.781 322.396 424.082 322.993 421.037 322.993C417.639 322.993 414.656 322.271 412.088 320.828C409.52 319.385 407.514 317.328 406.071 314.657C404.639 311.987 403.923 308.811 403.923 305.129C403.923 302.243 404.361 299.686 405.236 297.459C406.122 295.231 407.349 293.351 408.917 291.816C410.486 290.271 412.298 289.106 414.355 288.322C416.412 287.527 418.616 287.129 420.969 287.129C423.037 287.129 424.957 287.424 426.73 288.015C428.514 288.595 430.088 289.424 431.452 290.504C432.827 291.572 433.934 292.839 434.775 294.305C435.616 295.771 436.128 297.379 436.309 299.129H426.73ZM441.138 322.515V287.606H466.297V295.243H450.615V301.243H465.001V308.879H450.615V314.879H466.228V322.515H441.138ZM470.997 322.515V287.606H486.065C488.656 287.606 490.923 288.078 492.866 289.021C494.809 289.964 496.321 291.322 497.4 293.095C498.48 294.868 499.02 296.993 499.02 299.47C499.02 301.97 498.463 304.078 497.349 305.794C496.247 307.51 494.696 308.805 492.696 309.68C490.707 310.555 488.383 310.993 485.724 310.993H476.724V303.629H483.815C484.929 303.629 485.878 303.493 486.662 303.22C487.457 302.936 488.065 302.487 488.486 301.873C488.917 301.26 489.133 300.459 489.133 299.47C489.133 298.47 488.917 297.657 488.486 297.032C488.065 296.396 487.457 295.93 486.662 295.635C485.878 295.328 484.929 295.174 483.815 295.174H480.474V322.515H470.997ZM491.452 306.493L500.179 322.515H489.883L481.361 306.493H491.452Z" fill="white"/>
<defs>
<filter id="filter0_d_2_15" x="93.25" y="241.375" width="295.808" height="43.8636" filterUnits="userSpaceOnUse" color-interpolation-filters="sRGB">
<feFlood flood-opacity="0" result="BackgroundImageFix"/>
<feColorMatrix in="SourceAlpha" type="matrix" values="0 0 0 0 0 0 0 0 0 0 0 0 0 0 0 0 0 0 127 0" result="hardAlpha"/>
<feOffset dy="4"/>
<feGaussianBlur stdDeviation="2"/>
<feComposite in2="hardAlpha" operator="out"/>
<feColorMatrix type="matrix" values="0 0 0 0 0 0 0 0 0 0 0 0 0 0 0 0 0 0 0.25 0"/>
<feBlend mode="normal" in2="BackgroundImageFix" result="effect1_dropShadow_2_15"/>
<feBlend mode="normal" in="SourceGraphic" in2="effect1_dropShadow_2_15" result="shape"/>
</filter>
</defs>
</svg>
