<svg width="745" height="745" viewBox="0 0 745 745" fill="none" xmlns="http://www.w3.org/2000/svg">
<ellipse cx="370" cy="372.5" rx="370" ry="372.5" fill="#182942"/>
<path d="M375 372.5L97.5 465.101L97.5 279.899L375 372.5Z" fill="#1BD96A"/>
<path d="M375 372.5L652.5 279.899V465.101L375 372.5Z" fill="#CC562F"/>
<path d="M245.872 308.045H253.236L255.895 311.386L260.395 316.5L266.258 323.591H257.872L253.713 318.75L250.917 314.727L245.872 308.045ZM266.19 303.545C266.19 307.432 265.434 310.71 263.923 313.381C262.412 316.04 260.372 318.057 257.804 319.432C255.236 320.795 252.372 321.477 249.213 321.477C246.031 321.477 243.156 320.79 240.588 319.415C238.031 318.028 235.997 316.006 234.486 313.347C232.986 310.676 232.236 307.409 232.236 303.545C232.236 299.659 232.986 296.386 234.486 293.727C235.997 291.057 238.031 289.04 240.588 287.676C243.156 286.301 246.031 285.614 249.213 285.614C252.372 285.614 255.236 286.301 257.804 287.676C260.372 289.04 262.412 291.057 263.923 293.727C265.434 296.386 266.19 299.659 266.19 303.545ZM256.44 303.545C256.44 301.455 256.162 299.693 255.605 298.261C255.059 296.818 254.247 295.727 253.167 294.989C252.099 294.239 250.781 293.864 249.213 293.864C247.645 293.864 246.321 294.239 245.241 294.989C244.173 295.727 243.361 296.818 242.804 298.261C242.258 299.693 241.986 301.455 241.986 303.545C241.986 305.636 242.258 307.403 242.804 308.847C243.361 310.278 244.173 311.369 245.241 312.119C246.321 312.858 247.645 313.227 249.213 313.227C250.781 313.227 252.099 312.858 253.167 312.119C254.247 311.369 255.059 310.278 255.605 308.847C256.162 307.403 256.44 305.636 256.44 303.545ZM291.281 286.091H300.758V308.455C300.758 311.114 300.122 313.415 298.849 315.358C297.588 317.29 295.827 318.784 293.565 319.841C291.304 320.886 288.679 321.409 285.69 321.409C282.679 321.409 280.042 320.886 277.781 319.841C275.52 318.784 273.758 317.29 272.497 315.358C271.247 313.415 270.622 311.114 270.622 308.455V286.091H280.099V307.636C280.099 308.716 280.338 309.682 280.815 310.534C281.292 311.375 281.952 312.034 282.792 312.511C283.645 312.989 284.611 313.227 285.69 313.227C286.781 313.227 287.747 312.989 288.588 312.511C289.429 312.034 290.088 311.375 290.565 310.534C291.042 309.682 291.281 308.716 291.281 307.636V286.091ZM314.331 321H304.103L315.626 286.091H328.581L340.103 321H329.876L322.24 295.705H321.967L314.331 321ZM312.422 307.227H331.649V314.318H312.422V307.227ZM356.898 321H343.466V286.091H356.761C360.352 286.091 363.454 286.79 366.068 288.188C368.693 289.574 370.716 291.574 372.136 294.188C373.568 296.79 374.284 299.909 374.284 303.545C374.284 307.182 373.574 310.307 372.153 312.92C370.733 315.523 368.721 317.523 366.119 318.92C363.517 320.307 360.443 321 356.898 321ZM352.943 312.955H356.557C358.284 312.955 359.755 312.676 360.971 312.119C362.199 311.562 363.13 310.602 363.767 309.239C364.415 307.875 364.738 305.977 364.738 303.545C364.738 301.114 364.409 299.216 363.75 297.852C363.102 296.489 362.148 295.528 360.886 294.972C359.636 294.415 358.102 294.136 356.284 294.136H352.943V312.955ZM378.669 321V286.091H393.737C396.328 286.091 398.595 286.562 400.538 287.506C402.481 288.449 403.993 289.807 405.072 291.58C406.152 293.352 406.692 295.477 406.692 297.955C406.692 300.455 406.135 302.562 405.021 304.278C403.919 305.994 402.368 307.29 400.368 308.165C398.379 309.04 396.055 309.477 393.396 309.477H384.396V302.114H391.487C392.601 302.114 393.55 301.977 394.334 301.705C395.129 301.42 395.737 300.972 396.157 300.358C396.589 299.744 396.805 298.943 396.805 297.955C396.805 296.955 396.589 296.142 396.157 295.517C395.737 294.881 395.129 294.415 394.334 294.119C393.55 293.812 392.601 293.659 391.487 293.659H388.146V321H378.669ZM399.123 304.977L407.851 321H397.555L389.032 304.977H399.123ZM419.8 321H409.572L421.095 286.091H434.05L445.572 321H435.345L427.709 295.705H427.436L419.8 321ZM417.89 307.227H437.118V314.318H417.89V307.227ZM479.139 286.091V321H471.23L458.616 302.659H458.412V321H448.934V286.091H456.98L469.389 304.364H469.662V286.091H479.139ZM482.667 293.727V286.091H513.008V293.727H502.508V321H493.167V293.727H482.667Z" fill="white"/>
</svg>
